<svg
    version="1.0"
    xmlns="http://www.w3.org/2000/svg"
    xmlns:xlink="http://www.w3.org/1999/xlink"
    width="512"
    height="512"
    viewBox="0 0 512 512"
  >
    <svg id="global-svg-defs" version="1.0" xmlns="http://www.w3.org/2000/svg" width="0" height="0" viewBox="0 0 340.000000 250.000000" preserveAspectRatio="xMidYMid meet" color-interpolation-filters="sRGB" class="el-tooltip" style="margin: auto;" xmlns:xlink="http://www.w3.org/1999/xlink">
    <defs>
      <pattern id="watermark" patternUnits="userSpaceOnUse" width="100%" height="100%">
        <image xlink:href="https://www.logosc.cn/img/watermark/LOGOSC-watermark.png" x="0" y="0" width="100%" height="100%">
        </image>
      </pattern>
                    <linearGradient id="92" x1="0%" y1="0%" x2="100%" y2="0%">
          <stop offset="0%" stop-color="#fa71cd"></stop>
          <stop offset="100%" stop-color="#9b59b6"></stop>
        </linearGradient>
              <linearGradient id="93" x1="0%" y1="0%" x2="100%" y2="0%">
          <stop offset="0%" stop-color="#f9d423"></stop>
          <stop offset="100%" stop-color="#f83600"></stop>
        </linearGradient>
              <linearGradient id="94" x1="0%" y1="0%" x2="100%" y2="0%">
          <stop offset="0%" stop-color="#0064d2"></stop>
          <stop offset="100%" stop-color="#1cb0f6"></stop>
        </linearGradient>
              <linearGradient id="95" x1="0%" y1="0%" x2="100%" y2="0%">
          <stop offset="0%" stop-color="#f00978"></stop>
          <stop offset="100%" stop-color="#3f51b1"></stop>
        </linearGradient>
              <linearGradient id="96" x1="0%" y1="0%" x2="100%" y2="0%">
          <stop offset="0%" stop-color="#7873f5"></stop>
          <stop offset="100%" stop-color="#ec77ab"></stop>
        </linearGradient>
              <linearGradient id="97" x1="0%" y1="0%" x2="100%" y2="0%">
          <stop offset="0%" stop-color="#f9d423"></stop>
          <stop offset="100%" stop-color="#e14fad"></stop>
        </linearGradient>
              <linearGradient id="98" x1="0%" y1="0%" x2="100%" y2="0%">
          <stop offset="0%" stop-color="#009efd"></stop>
          <stop offset="100%" stop-color="#2af598"></stop>
        </linearGradient>
              <linearGradient id="99" x1="0%" y1="0%" x2="100%" y2="0%">
          <stop offset="0%" stop-color="#ffcc00"></stop>
          <stop offset="100%" stop-color="#00b140"></stop>
        </linearGradient>
              <linearGradient id="100" x1="0%" y1="0%" x2="100%" y2="0%">
          <stop offset="0%" stop-color="#d51007"></stop>
          <stop offset="100%" stop-color="#ff8177"></stop>
        </linearGradient>
              <linearGradient id="102" x1="0%" y1="0%" x2="100%" y2="0%">
          <stop offset="0%" stop-color="#a2b6df"></stop>
          <stop offset="100%" stop-color="#0c3483"></stop>
        </linearGradient>
              <linearGradient id="103" x1="0%" y1="0%" x2="100%" y2="0%">
          <stop offset="0%" stop-color="#7ac5d8"></stop>
          <stop offset="100%" stop-color="#eea2a2"></stop>
        </linearGradient>
              <linearGradient id="104" x1="0%" y1="0%" x2="100%" y2="0%">
          <stop offset="0%" stop-color="#00ecbc"></stop>
          <stop offset="100%" stop-color="#007adf"></stop>
        </linearGradient>
              <linearGradient id="105" x1="0%" y1="0%" x2="100%" y2="0%">
          <stop offset="0%" stop-color="#b88746"></stop>
          <stop offset="100%" stop-color="#fdf5a6"></stop>
        </linearGradient>
              <linearGradient id="107" x1="0%" y1="0%" x2="100%" y2="0%">
          <stop offset="0%" stop-color="#ffbf00"></stop>
          <stop offset="100%" stop-color="#26b5f8"></stop>
        </linearGradient>
          </defs>
  </svg>
    <rect
      x="0"
      y="0"
      width="100%"
      height="100%"
      fill="transparent"
      fill-opacity="1"
    ></rect>
    <svg data-v-0dd9719b="" version="1.0" xmlns="http://www.w3.org/2000/svg" xmlns:xlink="http://www.w3.org/1999/xlink" width="100%" height="100%" viewBox="0 0 100 100" preserveAspectRatio="xMidYMid meet" color-interpolation-filters="sRGB" style="margin: auto;"> <rect data-v-0dd9719b="" x="0" y="0" width="100%" height="100%" fill="#ffffff" fill-opacity="1" class="background" style="display: none;"/> <rect data-v-0dd9719b="" x="0" y="0" width="100%" height="100%" fill="url(#watermark)" fill-opacity="1" class="watermarklayer" style="display: none;"/> <g data-v-0dd9719b="" fill="#333" class="iconsvg-imagesvg"><rect fill="#333" fill-opacity="0" stroke-width="2" x="0" y="0" width="100" height="100" class="image-rect"/> <svg viewBox="0 0 60 60" x="0" y="0" width="100" height="100" class="image-svg-svg bn" style="overflow: visible;"><g hollow-target="iconBnFill" mask="url(#b6363b9e-2769-4b37-8df7-b518e283b1ff)"><g><svg fill="#000000" xmlns="http://www.w3.org/2000/svg" xmlns:xlink="http://www.w3.org/1999/xlink" xml:space="preserve" version="1.1" style="shape-rendering: geometricprecision; text-rendering: geometricprecision; image-rendering: optimizequality; overflow: visible;" viewBox="0 0 249 249" x="0" y="0" fill-rule="evenodd" clip-rule="evenodd" width="60" height="60" filtersec="colorsb3019464194" filter="url(#EswnJwcwP36P0bQD8OqA7)"><g transform="scale(1, 1) skewX(0)"><defs><filter id="EswnJwcwP36P0bQD8OqA7"><feColorMatrix type="matrix" values="0 0 0 0 0.19921875  0 0 0 0 0.19921875  0 0 0 0 0.19921875  0 0 0 1 0"/></filter></defs><g><path class="fil0" d="M125 0c68,0 124,56 124,125 0,68 -56,124 -124,124 -69,0 -125,-56 -125,-124 0,-69 56,-125 125,-125z"/></g></g></svg></g> <g filter="url(#colors8831963802)"><svg xmlns="http://www.w3.org/2000/svg" xmlns:xlink="http://www.w3.org/1999/xlink" viewBox="0 0 57.610285537719726 55.07656842041017" width="45" height="45" x="7.5" y="7.5" class="image-svg-letter"><path transform="translate(3.5280000000000005 50.447999816894544)" d="M11.09-49.46L11.09-49.46Q10.73-49.61 9.97-48.42Q9.22-47.23 8.21-44.03Q7.20-40.82 6.05-34.99L6.05-34.99Q8.93-37.58 10.44-39.67Q11.95-41.76 12.49-43.31Q13.03-44.86 12.96-45.94L12.96-45.94Q12.96-47.09 12.64-47.84Q12.31-48.60 11.88-49.00Q11.45-49.39 11.09-49.46ZM24.55-16.13L24.55-16.13Q24.62-16.34 24.77-16.56Q24.91-16.78 25.20-16.70L25.20-16.70Q25.49-16.70 25.70-16.42Q25.92-16.13 25.85-15.77L25.85-15.77Q24.91-12.53 23.72-9.14Q22.54-5.76 21.13-2.88Q19.73 0 18.11 1.62Q16.49 3.24 14.69 2.95L14.69 2.95Q12.74 2.59 11.70 1.62Q10.66 0.65 10.26-0.68Q9.86-2.02 9.90-3.53Q9.94-5.04 10.15-6.48L10.15-6.48L10.15-6.84Q10.37-8.64 10.33-10.12Q10.30-11.59 9.83-12.85Q9.36-14.11 8.14-15.26L8.14-15.26L8.86-16.92Q9.72-17.14 10.51-17.35L10.51-17.35Q11.45-17.57 12.28-17.86Q13.10-18.14 13.68-18.58L13.68-18.58Q14.26-19.08 14.40-19.87Q14.54-20.66 14.26-21.35Q13.97-22.03 13.25-22.03L13.25-22.03Q12.17-22.10 10.44-20.30Q8.71-18.50 6.84-15.41Q4.97-12.31 3.53-8.39Q2.09-4.46 1.66-0.29L1.66-0.29Q1.30 0.36 0.04 0.29Q-1.22 0.22-2.66-0.43L-2.66-0.43Q-3.60-0.94-3.53-4.43Q-3.46-7.92-2.81-13.10Q-2.16-18.29-1.26-23.69Q-0.36-29.09 0.50-33.41L0.50-33.41Q1.44-37.94 2.48-41.08Q3.53-44.21 4.61-46.15Q5.69-48.10 6.62-49.07Q7.56-50.04 8.35-50.26L8.35-50.26Q9.14-50.54 10.33-50.40Q11.52-50.26 12.31-49.68L12.31-49.68Q13.18-49.18 13.79-48.20Q14.40-47.23 14.40-45.86L14.40-45.86Q14.40-44.71 13.72-42.95Q13.03-41.18 11.16-38.77Q9.29-36.36 5.76-33.34L5.76-33.34Q5.11-29.95 4.36-24.84Q3.60-19.73 2.99-15.05Q2.38-10.37 2.09-8.50L2.09-8.50L2.02-7.78Q3.96-13.90 6.52-17.71Q9.07-21.53 11.77-22.82Q14.47-24.12 16.70-22.61L16.70-22.61Q18.36-21.46 18.54-20.12Q18.72-18.79 18.00-17.78Q17.28-16.78 16.06-16.42L16.06-16.42Q14.62-15.98 13.39-15.91Q12.17-15.84 9.86-15.84L9.86-15.84Q10.94-15.12 12.10-13.86Q13.25-12.60 13.97-11.02Q14.69-9.43 14.54-7.56L14.54-7.56Q14.47-6.70 14.33-5.54L14.33-5.54Q14.18-4.03 14.08-2.48Q13.97-0.94 14.15 0.18Q14.33 1.30 15.05 1.58L15.05 1.58Q16.13 1.80 17.28 0.58Q18.43-0.65 19.58-2.77Q20.74-4.90 21.71-7.42Q22.68-9.94 23.44-12.24Q24.19-14.54 24.55-16.13ZM47.30-18.79L47.30-18.79Q47.38-18.79 47.66-18.36L47.66-18.36Q48.02-17.86 48.71-17.10Q49.39-16.34 50.18-15.77Q50.98-15.19 51.70-15.26Q52.42-15.34 52.92-16.42L52.92-16.42Q53.21-16.99 53.71-16.85L53.71-16.85Q53.93-16.78 54.04-16.56Q54.14-16.34 54.00-15.84L54.00-15.84Q53.42-14.54 52.38-14.15Q51.34-13.75 50.11-14.29Q48.89-14.83 47.88-16.27L47.88-16.27Q47.52-15.34 46.94-13.46L46.94-13.46Q46.22-11.30 45.29-8.50Q44.35-5.69 43.20-2.92Q42.05-0.14 40.79 1.91Q39.53 3.96 38.23 4.61L38.23 4.61Q37.87 4.68 37.08 4.50Q36.29 4.32 35.57 4.03L35.57 4.03Q35.28 3.96 35.06 3.89L35.06 3.89Q34.06 3.46 33.70 2.16Q33.34 0.86 33.37-0.94Q33.41-2.74 33.70-4.79Q33.98-6.84 34.27-8.78L34.27-8.78Q34.63-10.73 34.85-12.28Q35.06-13.82 34.92-14.69L34.92-14.69Q34.42-14.33 33.62-13.03Q32.83-11.74 31.82-9.94L31.82-9.94Q30.89-8.21 29.77-6.37Q28.66-4.54 27.58-3.06Q26.50-1.58 25.49-0.79Q24.48 0 23.62-0.36L23.62-0.36Q22.54-0.79 22.07-1.19Q21.60-1.58 21.53-1.80L21.53-1.80Q21.02-3.10 21.67-6.44Q22.32-9.79 23.44-13.64Q24.55-17.50 25.49-20.30Q26.42-23.11 26.64-23.33L26.64-23.33Q27.14-23.54 27.97-23.54Q28.80-23.54 29.63-23.26Q30.46-22.97 30.89-22.39Q31.32-21.82 30.89-20.81L30.89-20.81Q30.31-19.44 29.41-16.74Q28.51-14.04 27.61-11.16Q26.71-8.28 26.24-6.23Q25.78-4.18 26.14-4.03L26.14-4.03Q26.50-4.03 27.43-5.40Q28.37-6.77 29.56-8.86Q30.74-10.94 31.97-13.10L31.97-13.10Q33.26-15.41 34.20-17.03Q35.14-18.65 35.35-18.65L35.35-18.65L39.82-16.70Q40.03-16.27 40.00-14.76Q39.96-13.25 39.71-11.16Q39.46-9.07 39.17-6.77L39.17-6.77Q38.74-3.46 38.48-0.83Q38.23 1.80 38.45 2.66L38.45 2.66Q39.46 2.09 40.57-0.14Q41.69-2.38 42.84-5.36Q43.99-8.35 44.93-11.34Q45.86-14.33 46.51-16.34L46.51-16.34Q47.23-18.79 47.30-18.79Z"/></svg></g></g><mask id="b6363b9e-2769-4b37-8df7-b518e283b1ff"><g fill="white"><svg xmlns="http://www.w3.org/2000/svg" xmlns:xlink="http://www.w3.org/1999/xlink" xml:space="preserve" version="1.1" style="shape-rendering: geometricprecision; text-rendering: geometricprecision; image-rendering: optimizequality; overflow: visible;" viewBox="0 0 249 249" x="0" y="0" fill-rule="evenodd" clip-rule="evenodd" width="60" height="60" filtersec="colorsb3019464194"><g transform="scale(1, 1) skewX(0)"><defs/><g><path d="M125 0c68,0 124,56 124,125 0,68 -56,124 -124,124 -69,0 -125,-56 -125,-124 0,-69 56,-125 125,-125z"/></g></g></svg></g> <g fill="black"><svg xmlns="http://www.w3.org/2000/svg" xmlns:xlink="http://www.w3.org/1999/xlink" viewBox="0 0 57.610285537719726 55.07656842041017" width="45" height="45" x="7.5" y="7.5" class="image-svg-letter"><path transform="translate(3.5280000000000005 50.447999816894544)" d="M11.09-49.46L11.09-49.46Q10.73-49.61 9.97-48.42Q9.22-47.23 8.21-44.03Q7.20-40.82 6.05-34.99L6.05-34.99Q8.93-37.58 10.44-39.67Q11.95-41.76 12.49-43.31Q13.03-44.86 12.96-45.94L12.96-45.94Q12.96-47.09 12.64-47.84Q12.31-48.60 11.88-49.00Q11.45-49.39 11.09-49.46ZM24.55-16.13L24.55-16.13Q24.62-16.34 24.77-16.56Q24.91-16.78 25.20-16.70L25.20-16.70Q25.49-16.70 25.70-16.42Q25.92-16.13 25.85-15.77L25.85-15.77Q24.91-12.53 23.72-9.14Q22.54-5.76 21.13-2.88Q19.73 0 18.11 1.62Q16.49 3.24 14.69 2.95L14.69 2.95Q12.74 2.59 11.70 1.62Q10.66 0.65 10.26-0.68Q9.86-2.02 9.90-3.53Q9.94-5.04 10.15-6.48L10.15-6.48L10.15-6.84Q10.37-8.64 10.33-10.12Q10.30-11.59 9.83-12.85Q9.36-14.11 8.14-15.26L8.14-15.26L8.86-16.92Q9.72-17.14 10.51-17.35L10.51-17.35Q11.45-17.57 12.28-17.86Q13.10-18.14 13.68-18.58L13.68-18.58Q14.26-19.08 14.40-19.87Q14.54-20.66 14.26-21.35Q13.97-22.03 13.25-22.03L13.25-22.03Q12.17-22.10 10.44-20.30Q8.71-18.50 6.84-15.41Q4.97-12.31 3.53-8.39Q2.09-4.46 1.66-0.29L1.66-0.29Q1.30 0.36 0.04 0.29Q-1.22 0.22-2.66-0.43L-2.66-0.43Q-3.60-0.94-3.53-4.43Q-3.46-7.92-2.81-13.10Q-2.16-18.29-1.26-23.69Q-0.36-29.09 0.50-33.41L0.50-33.41Q1.44-37.94 2.48-41.08Q3.53-44.21 4.61-46.15Q5.69-48.10 6.62-49.07Q7.56-50.04 8.35-50.26L8.35-50.26Q9.14-50.54 10.33-50.40Q11.52-50.26 12.31-49.68L12.31-49.68Q13.18-49.18 13.79-48.20Q14.40-47.23 14.40-45.86L14.40-45.86Q14.40-44.71 13.72-42.95Q13.03-41.18 11.16-38.77Q9.29-36.36 5.76-33.34L5.76-33.34Q5.11-29.95 4.36-24.84Q3.60-19.73 2.99-15.05Q2.38-10.37 2.09-8.50L2.09-8.50L2.02-7.78Q3.96-13.90 6.52-17.71Q9.07-21.53 11.77-22.82Q14.47-24.12 16.70-22.61L16.70-22.61Q18.36-21.46 18.54-20.12Q18.72-18.79 18.00-17.78Q17.28-16.78 16.06-16.42L16.06-16.42Q14.62-15.98 13.39-15.91Q12.17-15.84 9.86-15.84L9.86-15.84Q10.94-15.12 12.10-13.86Q13.25-12.60 13.97-11.02Q14.69-9.43 14.54-7.56L14.54-7.56Q14.47-6.70 14.33-5.54L14.33-5.54Q14.18-4.03 14.08-2.48Q13.97-0.94 14.15 0.18Q14.33 1.30 15.05 1.58L15.05 1.58Q16.13 1.80 17.28 0.58Q18.43-0.65 19.58-2.77Q20.74-4.90 21.71-7.42Q22.68-9.94 23.44-12.24Q24.19-14.54 24.55-16.13ZM47.30-18.79L47.30-18.79Q47.38-18.79 47.66-18.36L47.66-18.36Q48.02-17.86 48.71-17.10Q49.39-16.34 50.18-15.77Q50.98-15.19 51.70-15.26Q52.42-15.34 52.92-16.42L52.92-16.42Q53.21-16.99 53.71-16.85L53.71-16.85Q53.93-16.78 54.04-16.56Q54.14-16.34 54.00-15.84L54.00-15.84Q53.42-14.54 52.38-14.15Q51.34-13.75 50.11-14.29Q48.89-14.83 47.88-16.27L47.88-16.27Q47.52-15.34 46.94-13.46L46.94-13.46Q46.22-11.30 45.29-8.50Q44.35-5.69 43.20-2.92Q42.05-0.14 40.79 1.91Q39.53 3.96 38.23 4.61L38.23 4.61Q37.87 4.68 37.08 4.50Q36.29 4.32 35.57 4.03L35.57 4.03Q35.28 3.96 35.06 3.89L35.06 3.89Q34.06 3.46 33.70 2.16Q33.34 0.86 33.37-0.94Q33.41-2.74 33.70-4.79Q33.98-6.84 34.27-8.78L34.27-8.78Q34.63-10.73 34.85-12.28Q35.06-13.82 34.92-14.69L34.92-14.69Q34.42-14.33 33.62-13.03Q32.83-11.74 31.82-9.94L31.82-9.94Q30.89-8.21 29.77-6.37Q28.66-4.54 27.58-3.06Q26.50-1.58 25.49-0.79Q24.48 0 23.62-0.36L23.62-0.36Q22.54-0.79 22.07-1.19Q21.60-1.58 21.53-1.80L21.53-1.80Q21.02-3.10 21.67-6.44Q22.32-9.79 23.44-13.64Q24.55-17.50 25.49-20.30Q26.42-23.11 26.64-23.33L26.64-23.33Q27.14-23.54 27.97-23.54Q28.80-23.54 29.63-23.26Q30.46-22.97 30.89-22.39Q31.32-21.82 30.89-20.81L30.89-20.81Q30.31-19.44 29.41-16.74Q28.51-14.04 27.61-11.16Q26.71-8.28 26.24-6.23Q25.78-4.18 26.14-4.03L26.14-4.03Q26.50-4.03 27.43-5.40Q28.37-6.77 29.56-8.86Q30.74-10.94 31.97-13.10L31.97-13.10Q33.26-15.41 34.20-17.03Q35.14-18.65 35.35-18.65L35.35-18.65L39.82-16.70Q40.03-16.27 40.00-14.76Q39.96-13.25 39.71-11.16Q39.46-9.07 39.17-6.77L39.17-6.77Q38.74-3.46 38.48-0.83Q38.23 1.80 38.45 2.66L38.45 2.66Q39.46 2.09 40.57-0.14Q41.69-2.38 42.84-5.36Q43.99-8.35 44.93-11.34Q45.86-14.33 46.51-16.34L46.51-16.34Q47.23-18.79 47.30-18.79Z"/></svg></g></mask></svg> <defs><filter id="colors8831963802"><feColorMatrix type="matrix" values="0 0 0 0 0.19921875  0 0 0 0 0.19921875  0 0 0 0 0.19921875  0 0 0 1 0" class="icon-fecolormatrix"/></filter> <filter id="colorsf4662835081"><feColorMatrix type="matrix" values="0 0 0 0 0.99609375  0 0 0 0 0.99609375  0 0 0 0 0.99609375  0 0 0 1 0" class="icon-fecolormatrix"/></filter> <filter id="colorsb3019464194"><feColorMatrix type="matrix" values="0 0 0 0 0  0 0 0 0 0  0 0 0 0 0  0 0 0 1 0" class="icon-fecolormatrix"/></filter></defs></g><defs v-gra="od"/></svg>
  </svg>
